<?xml version="1.0" standalone="no"?><!DOCTYPE svg PUBLIC "-//W3C//DTD SVG 1.1//EN" "http://www.w3.org/Graphics/SVG/1.1/DTD/svg11.dtd"><svg t="1651545796604" class="icon" viewBox="0 0 1024 1024" version="1.1" xmlns="http://www.w3.org/2000/svg" p-id="8341" xmlns:xlink="http://www.w3.org/1999/xlink" width="200" height="200"><defs><style type="text/css"></style></defs><path d="M506.311111 153.979259c83.437037 0 151.324444 67.887407 151.324445 151.324445s-67.887407 151.324444-151.324445 151.324444-151.324444-67.887407-151.324444-151.324444 67.887407-151.324444 151.324444-151.324445m0-75.851852c-125.534815 0-227.176296 101.641481-227.176296 227.176297s101.641481 227.176296 227.176296 227.176296 227.176296-101.641481 227.176296-227.176296S631.845926 78.127407 506.311111 78.127407z" fill="#048FFA" p-id="8342"></path><path d="M614.020741 604.34963c115.674074 0 209.92 94.245926 209.92 209.92v2.085926c0 26.927407-22.755556 49.682963-49.682963 49.682963H235.140741c-26.927407 0-49.493333-22.755556-49.493334-49.493334v-2.085926c0-115.863704 94.245926-210.10963 210.10963-210.109629h218.263704m0-76.610371H395.567407c-158.340741 0-286.90963 128.379259-286.909629 286.90963v2.085926c0 69.404444 56.888889 126.293333 126.293333 126.293333h538.927408c69.594074 0 126.482963-56.888889 126.482962-126.482963v-2.085926c0.18963-158.53037-128.18963-286.72-286.34074-286.72z" fill="#048FFA" p-id="8343"></path><path d="M999.727407 777.102222c-10.42963 0-18.962963-8.533333-18.962963-18.962963 0-77.368889-21.428148-137.481481-63.715555-178.82074-64.474074-62.957037-157.771852-61.62963-158.53037-61.81926h-0.37926a19.000889 19.000889 0 0 1-1.327407-37.925926c5.499259-0.379259 134.068148-10.808889 134.068148-130.844444 0-118.897778-106.571852-122.69037-111.122963-122.69037-10.42963-0.18963-18.773333-8.912593-18.583704-19.342223 0.18963-10.42963 8.533333-18.583704 18.962963-18.583703h0.37926c51.38963 0.758519 148.48 35.460741 148.48 160.616296 0 75.662222-40.77037 120.225185-86.091852 144.308148 32.237037 10.24 68.835556 27.875556 100.503703 58.595556 50.062222 48.734815 75.472593 118.139259 75.472593 206.127407-0.18963 10.998519-8.722963 19.342222-19.152593 19.342222zM22.755556 777.102222c-10.42963 0-18.962963-8.533333-18.962963-18.962963 0-88.177778 25.41037-157.392593 75.472592-206.127407 31.668148-30.72 68.266667-48.545185 100.503704-58.595556-45.131852-24.082963-86.091852-68.645926-86.091852-144.308148 0-125.345185 97.09037-159.857778 148.48-160.616296 10.24 0.379259 19.152593 8.154074 19.342222 18.583704 0.18963 10.42963-8.154074 18.962963-18.583703 19.342222-4.551111 0.18963-111.122963 3.982222-111.122963 122.69037 0 120.035556 128.568889 130.465185 134.068148 130.844445a18.962963 18.962963 0 0 1 17.635555 19.911111c-0.568889 10.24-9.291852 18.583704-19.342222 18.014815-0.948148 0-93.866667-1.327407-158.340741 61.819259-42.287407 41.339259-63.715556 101.451852-63.715555 178.820741-0.379259 10.24-8.912593 18.583704-19.342222 18.583703z" fill="#0DB8F2" p-id="8344"></path></svg>